# xmcd
#
# Track frame offsets:
#	150
#	17455
#	32412
#	45765
#	58100
#	110757
#	121687
#	142620
#	151505
#	160887
#	189380
#	203457
#	225770
#	251252
#	265255
#
# Disc length: 3729 seconds
#
# Revision: 1
# Processed by: cddbd v1.5.1PL0 Copyright (c) Steve Scherf et al.
# Submitted via: CDex 1.50Beta5
#
DISCID=9d0e8f0f
DTITLE=バッハからサティまで - エリーゼのために〜珠玉のピアノ名曲集
DYEAR=1900
DGENRE=Classical
TTITLE0=乙女の祈り
TTITLE1=エリーゼのために
TTITLE2=トロイメライ〜「子供の情景」
TTITLE3=春の歌
TTITLE4=きらきら星変奏曲
TTITLE5=亜麻色の髪の乙女
TTITLE6=月の光
TTITLE7=楽興の時第3番
TTITLE8=シチリアーナ
TTITLE9=・ソナタ「月光」第1楽章
TTITLE10=トルコ行進曲
TTITLE11=愛の夢
TTITLE12=ラ・カンパネラ
TTITLE13=ジムノペディ第1番
TTITLE14=主よ人の望みの喜びよ(ヘス編曲)
EXTD=
EXTT0=
EXTT1=
EXTT2=
EXTT3=
EXTT4=
EXTT5=
EXTT6=
EXTT7=
EXTT8=
EXTT9=
EXTT10=
EXTT11=
EXTT12=
EXTT13=
EXTT14=
PLAYORDER=
